<?xml version="1.0" standalone="no"?>
<!DOCTYPE svg PUBLIC "-//W3C//DTD SVG 20010904//EN"
 "http://www.w3.org/TR/2001/REC-SVG-20010904/DTD/svg10.dtd">
<svg version="1.0" xmlns="http://www.w3.org/2000/svg"
 width="128.000000pt" height="128.000000pt" viewBox="0 0 128.000000 128.000000"
 preserveAspectRatio="xMidYMid meet">
<metadata>
Created by potrace 1.11, written by Peter Selinger 2001-2013
</metadata>
<g transform="translate(0.000000,128.000000) scale(0.100000,-0.100000)"
fill="#000000" stroke="none">
<path d="M779 1114 c-42 -45 -85 -72 -169 -108 -97 -41 -146 -96 -165 -186
l-7 -35 30 41 c26 36 45 47 129 80 116 45 170 93 203 181 11 30 19 57 17 59
-2 2 -19 -12 -38 -32z"/>
<path d="M758 928 c-20 -20 -59 -44 -85 -53 -118 -43 -152 -65 -183 -118 -34
-60 -46 -137 -32 -204 l10 -48 1 39 c3 101 42 156 159 225 76 44 136 104 159
158 8 19 13 36 11 37 -2 0 -20 -15 -40 -36z"/>
<path d="M722 343 c-15 -6 -77 -128 -84 -167 -8 -41 9 -31 31 19 12 27 26 45
37 45 11 0 14 -5 9 -17 -17 -45 -18 -73 -2 -73 19 0 32 17 16 22 -7 2 -7 12 0
31 17 43 14 57 -10 54 -32 -3 -33 15 -5 56 14 20 24 37 23 36 -1 0 -8 -3 -15
-6z"/>
<path d="M259 313 c-11 -15 -11 -16 1 -5 8 6 24 12 37 12 21 0 22 -2 11 -22
-7 -13 -19 -31 -27 -40 -8 -10 -11 -18 -8 -18 3 0 0 -19 -8 -41 -18 -50 -18
-49 -1 -49 7 0 19 20 26 45 11 41 16 45 44 46 l31 1 -28 7 -28 6 20 38 19 37
-38 0 c-24 0 -42 -6 -51 -17z"/>
<path d="M386 315 c4 -8 8 -15 10 -15 2 0 4 7 4 15 0 8 -4 15 -10 15 -5 0 -7
-7 -4 -15z"/>
<path d="M730 310 c-6 -11 -8 -20 -6 -20 3 0 10 9 16 20 6 11 8 20 6 20 -3 0
-10 -9 -16 -20z"/>
<path d="M627 293 c-33 -55 -46 -86 -44 -109 3 -32 19 -41 37 -19 11 13 10 14
-4 9 -9 -3 -16 -2 -16 3 0 22 23 73 33 73 6 0 7 3 4 6 -3 4 -2 15 4 25 9 18
-4 29 -14 12z"/>
<path d="M1018 278 c-22 -36 -38 -77 -38 -98 0 -30 20 -34 44 -9 12 14 14 18
3 9 -9 -7 -20 -11 -22 -8 -7 7 16 72 29 80 6 4 7 8 3 8 -4 0 -3 9 3 20 15 28
-4 25 -22 -2z"/>
<path d="M380 240 c-25 -25 -36 -68 -21 -83 8 -8 16 -6 29 7 9 11 12 16 5 12
-23 -13 -22 12 2 48 26 39 18 49 -15 16z"/>
<path d="M507 253 c-12 -11 -8 -36 9 -55 14 -15 15 -20 3 -34 -12 -14 -11 -16
6 -13 28 6 31 37 5 64 -15 16 -18 25 -10 30 7 4 16 1 21 -6 4 -7 11 -10 14 -7
4 4 4 11 0 17 -7 12 -38 15 -48 4z"/>
<path d="M894 248 c-33 -16 -57 -79 -35 -92 13 -9 39 3 45 21 5 13 4 14 -9 3
-24 -20 -20 22 6 54 11 14 19 26 17 25 -2 0 -13 -5 -24 -11z"/>
<path d="M954 252 c-31 -20 -47 -102 -20 -102 7 0 19 7 26 15 11 13 10 14 -4
9 -20 -8 -21 8 0 47 16 32 16 43 -2 31z"/>
<path d="M430 222 c-8 -15 -14 -37 -12 -49 3 -23 26 -31 37 -13 3 6 1 10 -4
10 -15 0 -14 20 3 53 20 37 -3 37 -24 -1z"/>
<path d="M770 218 c-14 -23 -16 -36 -9 -50 12 -23 52 -23 70 0 11 14 11 15 -1
5 -22 -20 -50 -16 -50 7 0 13 7 20 18 20 10 0 27 6 38 14 16 13 17 17 5 28 -8
7 -11 8 -8 2 8 -14 -18 -37 -34 -32 -8 3 -6 9 5 21 15 15 16 17 2 17 -9 0 -25
-14 -36 -32z"/>
<path d="M476 172 c-3 -6 -1 -14 5 -17 14 -9 20 -2 10 14 -6 8 -11 9 -15 3z"/>
</g>
</svg>
